<svg id="visual" viewBox="0 0 1920 4100" width="1920" height="4100" xmlns="http://www.w3.org/2000/svg"
    xmlns:xlink="http://www.w3.org/1999/xlink" version="1.1">
    <rect x="0" y="0" width="1920" height="4100" fill="#ffffff"></rect>
    <defs>
        <linearGradient id="grad1_0" x1="0%" y1="100%" x2="100%" y2="0%">
            <stop offset="30%" stop-color="#c4eafa" stop-opacity="1"></stop>
            <stop offset="70%" stop-color="#c4eafa" stop-opacity="1"></stop>
        </linearGradient>
    </defs>
    <defs>
        <linearGradient id="grad1_1" x1="0%" y1="100%" x2="100%" y2="0%">
            <stop offset="30%" stop-color="#c4eafa" stop-opacity="1"></stop>
            <stop offset="70%" stop-color="#ffffff" stop-opacity="1"></stop>
        </linearGradient>
    </defs>
    <defs>
        <linearGradient id="grad2_0" x1="0%" y1="100%" x2="100%" y2="0%">
            <stop offset="30%" stop-color="#c4eafa" stop-opacity="1"></stop>
            <stop offset="70%" stop-color="#c4eafa" stop-opacity="1"></stop>
        </linearGradient>
    </defs>
    <defs>
        <linearGradient id="grad2_1" x1="0%" y1="100%" x2="100%" y2="0%">
            <stop offset="30%" stop-color="#ffffff" stop-opacity="1"></stop>
            <stop offset="70%" stop-color="#c4eafa" stop-opacity="1"></stop>
        </linearGradient>
    </defs>
    <g transform="translate(1920, 4100)">
        <path
            d="M-1920 0C-1827.5 -147.8 -1735 -295.7 -1677.8 -449.6C-1620.7 -603.5 -1598.9 -763.4 -1503.4 -868C-1408 -972.6 -1238.9 -1021.7 -1137.7 -1137.7C-1036.6 -1253.8 -1003.5 -1436.7 -909 -1574.4C-814.5 -1712.1 -658.7 -1804.5 -496.9 -1854.6C-335.2 -1904.6 -167.6 -1912.3 0 -1920L0 0Z"
            fill="#e2f5fd"></path>
        <path
            d="M-960 0C-913.7 -73.9 -867.5 -147.8 -838.9 -224.8C-810.3 -301.7 -799.4 -381.7 -751.7 -434C-704 -486.3 -619.4 -510.8 -568.9 -568.9C-518.3 -626.9 -501.7 -718.4 -454.5 -787.2C-407.3 -856.1 -329.3 -902.3 -248.5 -927.3C-167.6 -952.3 -83.8 -956.2 0 -960L0 0Z"
            fill="#c4eafa"></path>
    </g>
    <g transform="translate(0, 0)">
        <path
            d="M1920 0C1806.9 141.4 1693.7 282.8 1647.9 441.5C1602 600.3 1623.4 776.5 1549.3 894.5C1475.2 1012.5 1305.7 1072.2 1203.5 1203.5C1101.3 1334.8 1066.6 1537.7 958.5 1660.2C850.4 1782.6 668.9 1824.7 496.9 1854.6C325 1884.5 162.5 1902.2 0 1920L0 0Z"
            fill="#e2f5fd"></path>
        <path
            d="M960 0C903.4 70.7 846.9 141.4 823.9 220.8C801 300.2 811.7 388.3 774.7 447.2C737.6 506.2 652.8 536.1 601.7 601.7C550.7 667.4 533.3 768.9 479.3 830.1C425.2 891.3 334.5 912.3 248.5 927.3C162.5 942.2 81.2 951.1 0 960L0 0Z"
            fill="#c4eafa"></path>
    </g>
</svg>