<svg id="visual" viewBox="0 0 1920 4100" width="1920" height="4100" xmlns="http://www.w3.org/2000/svg"
    xmlns:xlink="http://www.w3.org/1999/xlink" version="1.1">
    <rect x="0" y="0" width="1920" height="4100" fill="#ffffff"></rect>
    <defs>
        <linearGradient id="grad1_0" x1="0%" y1="100%" x2="100%" y2="0%">
            <stop offset="30%" stop-color="#c4eafa" stop-opacity="1"></stop>
            <stop offset="70%" stop-color="#c4eafa" stop-opacity="1"></stop>
        </linearGradient>
    </defs>
    <defs>
        <linearGradient id="grad1_1" x1="0%" y1="100%" x2="100%" y2="0%">
            <stop offset="30%" stop-color="#c4eafa" stop-opacity="1"></stop>
            <stop offset="70%" stop-color="#ffffff" stop-opacity="1"></stop>
        </linearGradient>
    </defs>
    <defs>
        <linearGradient id="grad2_0" x1="0%" y1="100%" x2="100%" y2="0%">
            <stop offset="30%" stop-color="#c4eafa" stop-opacity="1"></stop>
            <stop offset="70%" stop-color="#c4eafa" stop-opacity="1"></stop>
        </linearGradient>
    </defs>
    <defs>
        <linearGradient id="grad2_1" x1="0%" y1="100%" x2="100%" y2="0%">
            <stop offset="30%" stop-color="#ffffff" stop-opacity="1"></stop>
            <stop offset="70%" stop-color="#c4eafa" stop-opacity="1"></stop>
        </linearGradient>
    </defs>
    <g transform="translate(1920, 4100)">
        <path
            d="M-1920 0C-1896.2 -205.4 -1872.5 -410.8 -1793.7 -582.8C-1714.9 -754.8 -1581.1 -893.4 -1474 -1070.9C-1367 -1248.5 -1286.7 -1465 -1128.5 -1553.3C-970.4 -1641.6 -734.4 -1601.8 -533.4 -1641.5C-332.3 -1681.3 -166.1 -1800.6 0 -1920L0 0Z"
            fill="#e2f5fd"></path>
        <path
            d="M-960 0C-948.1 -102.7 -936.2 -205.4 -896.8 -291.4C-857.5 -377.4 -790.5 -446.7 -737 -535.5C-683.5 -624.2 -643.3 -732.5 -564.3 -776.7C-485.2 -820.8 -367.2 -800.9 -266.7 -820.8C-166.1 -840.6 -83.1 -900.3 0 -960L0 0Z"
            fill="#c4eafa"></path>
    </g>
    <g transform="translate(0, 0)">
        <path
            d="M1920 0C1813.5 168.6 1707 337.2 1670.1 542.6C1633.1 748.1 1665.8 990.3 1553.3 1128.5C1440.9 1266.8 1183.3 1301 994.5 1368.9C805.8 1436.7 685.8 1538.3 531.5 1635.8C377.2 1733.3 188.6 1826.6 0 1920L0 0Z"
            fill="#e2f5fd"></path>
        <path
            d="M960 0C906.7 84.3 853.5 168.6 835 271.3C816.6 374 832.9 495.2 776.7 564.3C720.4 633.4 591.6 650.5 497.3 684.4C402.9 718.4 342.9 769.2 265.8 817.9C188.6 866.6 94.3 913.3 0 960L0 0Z"
            fill="#c4eafa"></path>
    </g>
</svg>