<svg id="visual" viewBox="0 0 1920 4100" width="1920" height="4100" xmlns="http://www.w3.org/2000/svg" xmlns:xlink="http://www.w3.org/1999/xlink" version="1.1">
    <rect x="0" y="0" width="1920" height="4100" fill="#ffffff"></rect>
    <defs>
        <linearGradient id="grad1_0" x1="0%" y1="100%" x2="100%" y2="0%">
            <stop offset="30%" stop-color="#c4eafa" stop-opacity="1"></stop>
            <stop offset="70%" stop-color="#c4eafa" stop-opacity="1"></stop>
        </linearGradient>
        <linearGradient id="grad1_1" x1="0%" y1="100%" x2="100%" y2="0%">
            <stop offset="30%" stop-color="#c4eafa" stop-opacity="1"></stop>
            <stop offset="70%" stop-color="#ffffff" stop-opacity="1"></stop>
        </linearGradient>
        <linearGradient id="grad2_0" x1="0%" y1="100%" x2="100%" y2="0%">
            <stop offset="30%" stop-color="#c4eafa" stop-opacity="1"></stop>
            <stop offset="70%" stop-color="#c4eafa" stop-opacity="1"></stop>
        </linearGradient>
        <linearGradient id="grad2_1" x1="0%" y1="100%" x2="100%" y2="0%">
            <stop offset="30%" stop-color="#ffffff" stop-opacity="1"></stop>
            <stop offset="70%" stop-color="#c4eafa" stop-opacity="1"></stop>
        </linearGradient>
    </defs>
    <g transform="translate(1920, 4100)">
        <path id="path1"
            d="M-1920 0C-1800.7 -157.5 -1681.4 -314.9 -1552.2 -415.9C-1423.1 -516.9 -1284.1 -561.5 -1287.8 -743.5C-1291.5 -925.5 -1437.9 -1244.9 -1357.6 -1357.6C-1277.4 -1470.4 -970.5 -1376.6 -775.5 -1343.2C-580.5 -1309.8 -497.3 -1336.9 -386.7 -1443.1C-276.1 -1549.3 -138 -1734.7 0 -1920L0 0Z"
            fill="#e2f5fd">
            <animate attributeName="d" dur="10s" repeatCount="indefinite" values="
                M-1920 0C-1800.7 -157.5 -1681.4 -314.9 -1552.2 -415.9C-1423.1 -516.9 -1284.1 -561.5 -1287.8 -743.5C-1291.5 -925.5 -1437.9 -1244.9 -1357.6 -1357.6C-1277.4 -1470.4 -970.5 -1376.6 -775.5 -1343.2C-580.5 -1309.8 -497.3 -1336.9 -386.7 -1443.1C-276.1 -1549.3 -138 -1734.7 0 -1920L0 0Z;
                M-1920 0C-1827.5 -147.8 -1735 -295.7 -1677.8 -449.6C-1620.7 -603.5 -1598.9 -763.4 -1503.4 -868C-1408 -972.6 -1238.9 -1021.7 -1137.7 -1137.7C-1036.6 -1253.8 -1003.5 -1436.7 -909 -1574.4C-814.5 -1712.1 -658.7 -1804.5 -496.9 -1854.6C-335.2 -1904.6 -167.6 -1912.3 0 -1920L0 0Z;
                M-1920 0C-1800.7 -157.5 -1681.4 -314.9 -1552.2 -415.9C-1423.1 -516.9 -1284.1 -561.5 -1287.8 -743.5C-1291.5 -925.5 -1437.9 -1244.9 -1357.6 -1357.6C-1277.4 -1470.4 -970.5 -1376.6 -775.5 -1343.2C-580.5 -1309.8 -497.3 -1336.9 -386.7 -1443.1C-276.1 -1549.3 -138 -1734.7 0 -1920L0 0Z" />
        </path>
        <path id="path2"
            d="M-960 0C-900.3 -78.7 -840.7 -157.5 -776.1 -208C-711.5 -258.5 -642 -280.8 -643.9 -371.8C-645.7 -462.7 -718.9 -622.4 -678.8 -678.8C-638.7 -735.2 -485.3 -688.3 -387.8 -671.6C-290.2 -654.9 -248.6 -668.4 -193.3 -721.5C-138 -774.7 -69 -867.3 0 -960L0 0Z"
            fill="#c4eafa">
            <animate attributeName="d" dur="10s" repeatCount="indefinite" values="
                M-960 0C-900.3 -78.7 -840.7 -157.5 -776.1 -208C-711.5 -258.5 -642 -280.8 -643.9 -371.8C-645.7 -462.7 -718.9 -622.4 -678.8 -678.8C-638.7 -735.2 -485.3 -688.3 -387.8 -671.6C-290.2 -654.9 -248.6 -668.4 -193.3 -721.5C-138 -774.7 -69 -867.3 0 -960L0 0Z;
                M-960 0C-913.7 -73.9 -867.5 -147.8 -838.9 -224.8C-810.3 -301.7 -799.4 -381.7 -751.7 -434C-704 -486.3 -619.4 -510.8 -568.9 -568.9C-518.3 -626.9 -501.7 -718.4 -454.5 -787.2C-407.3 -856.1 -329.3 -902.3 -248.5 -927.3C-167.6 -952.3 -83.8 -956.2 0 -960L0 0Z;
                M-960 0C-900.3 -78.7 -840.7 -157.5 -776.1 -208C-711.5 -258.5 -642 -280.8 -643.9 -371.8C-645.7 -462.7 -718.9 -622.4 -678.8 -678.8C-638.7 -735.2 -485.3 -688.3 -387.8 -671.6C-290.2 -654.9 -248.6 -668.4 -193.3 -721.5C-138 -774.7 -69 -867.3 0 -960L0 0Z" />
        </path>
    </g>
    <g transform="translate(0, 0)">
        <path id="path3"
            d="M1920 0C1940.9 186.8 1961.8 373.5 1854.6 496.9C1747.4 620.4 1512 680.5 1399.5 808C1287 935.5 1297.3 1130.5 1194.3 1194.3C1091.3 1258.1 875 1190.6 753.5 1305.1C632 1419.6 605.2 1716 495.4 1848.8C385.6 1981.6 192.8 1950.8 0 1920L0 0Z"
            fill="#e2f5fd">
            <animate attributeName="d" dur="10s" repeatCount="indefinite" values="
                M1920 0C1940.9 186.8 1961.8 373.5 1854.6 496.9C1747.4 620.4 1512 680.5 1399.5 808C1287 935.5 1297.3 1130.5 1194.3 1194.3C1091.3 1258.1 875 1190.6 753.5 1305.1C632 1419.6 605.2 1716 495.4 1848.8C385.6 1981.6 192.8 1950.8 0 1920L0 0Z;
                M1920 0C1806.9 141.4 1693.7 282.8 1647.9 441.5C1602 600.3 1623.4 776.5 1549.3 894.5C1475.2 1012.5 1305.7 1072.2 1203.5 1203.5C1101.3 1334.8 1066.6 1537.7 958.5 1660.2C850.4 1782.6 668.9 1824.7 496.9 1854.6C325 1884.5 162.5 1902.2 0 1920L0 0Z;
                M1920 0C1940.9 186.8 1961.8 373.5 1854.6 496.9C1747.4 620.4 1512 680.5 1399.5 808C1287 935.5 1297.3 1130.5 1194.3 1194.3C1091.3 1258.1 875 1190.6 753.5 1305.1C632 1419.6 605.2 1716 495.4 1848.8C385.6 1981.6 192.8 1950.8 0 1920L0 0Z" />
        </path>
        <path id="path4"
            d="M960 0C970.4 93.4 980.9 186.8 927.3 248.5C873.7 310.2 756 340.2 699.7 404C643.5 467.8 648.6 565.3 597.2 597.2C545.7 629 437.5 595.3 376.8 652.6C316 709.8 302.6 858 247.7 924.4C192.8 990.8 96.4 975.4 0 960L0 0Z"
            fill="#c4eafa">
            <animate attributeName="d" dur="10s" repeatCount="indefinite" values="
                M960 0C970.4 93.4 980.9 186.8 927.3 248.5C873.7 310.2 756 340.2 699.7 404C643.5 467.8 648.6 565.3 597.2 597.2C545.7 629 437.5 595.3 376.8 652.6C316 709.8 302.6 858 247.7 924.4C192.8 990.8 96.4 975.4 0 960L0 0Z;
                M960 0C903.4 70.7 846.9 141.4 823.9 220.8C801 300.2 811.7 388.3 774.7 447.2C737.6 506.2 652.8 536.1 601.7 601.7C550.7 667.4 533.3 768.9 479.3 830.1C425.2 891.3 334.5 912.3 248.5 927.3C162.5 942.2 81.2 951.1 0 960L0 0Z;
                M960 0C970.4 93.4 980.9 186.8 927.3 248.5C873.7 310.2 756 340.2 699.7 404C643.5 467.8 648.6 565.3 597.2 597.2C545.7 629 437.5 595.3 376.8 652.6C316 709.8 302.6 858 247.7 924.4C192.8 990.8 96.4 975.4 0 960L0 0Z" />
        </path>
    </g>
</svg>
