<svg width="1920" height="3962" viewBox="0 0 1920 3962" fill="none" xmlns="http://www.w3.org/2000/svg">
<g clip-path="url(#clip0_604_16)">
<path d="M1920 0H0V3962H1920V0Z" fill="white"/>
<path d="M1002 3782.13C1073.8 3440.06 1128 3165.08 1128 2772.25C1107 2415.93 1251.1 1970.26 1308.5 1630.27C1365.7 1289.59 1381 750.065 1493 590.848C1605.2 432.327 1800.4 632.564 1920 590.848V3782.13H1002Z" fill="#00A8E8" fill-opacity="0.1"/>
<path d="M1461 3782.13C1496.8 3561.88 1532.8 3341.62 1553.2 3101.67C1573.8 2861.72 1578.8 2602.07 1607.4 2382.72C1636.2 2164.25 1688.4 1986.08 1744.4 1884.01C1800.4 1781.05 1860.2 1754.19 1920 1727.33V3782.13H1461Z" fill="#00A8E8" fill-opacity="0.15"/>
<path d="M910 -24.6784C904.208 395.848 784.202 626.023 732.616 970.949C681.029 1315.2 618.673 1773.53 527.266 1941.6C436.04 2110.35 350.787 2179.2 263.905 2351.33C177.022 2523.45 88.5112 2798.18 0 3073.58V-24.6784H910Z" fill="#00A8E8" fill-opacity="0.1"/>
<path d="M352.7 -312.191C349.5 -101.586 346.3 108.344 317.7 280.473C289.3 452.602 235.5 586.93 185.1 671.307C134.5 755.009 87.5 790.11 39.5 875.837C-8.5 961.564 -57.3 1099.27 -106.3 1236.97V-312.191H352.7Z" fill="#00A8E8" fill-opacity="0.15"/>
</g>
<defs>
<clipPath id="clip0_604_16">
<rect width="1920" height="3962" fill="white"/>
</clipPath>
</defs>
</svg>
