<svg width="1920" height="980" viewBox="0 0 1920 980" fill="none" xmlns="http://www.w3.org/2000/svg">
<g clip-path="url(#clip0_282_275)">
<path d="M1920 -100H0V980H1920V-100Z" fill="white"/>
<path d="M1002 980C1073.8 881.6 1128 802.5 1128 689.5C1107 587 1251.1 458.8 1308.5 361C1365.7 263 1381 107.8 1493 62C1605.2 16.4 1800.4 74 1920 62V980H1002Z" fill="#00A8E8" fill-opacity="0.1"/>
<path d="M1461 980C1496.8 930.8 1532.8 881.6 1553.2 828C1573.8 774.4 1578.8 716.4 1607.4 667.4C1636.2 618.6 1688.4 578.8 1744.4 556C1800.4 533 1860.2 527 1920 521V980H1461Z" fill="#00A8E8" fill-opacity="0.15"/>
<path d="M1005.5 -100C999.1 24.6 866.5 92.8 809.5 195C752.5 297 683.6 432.8 582.6 482.6C481.8 532.6 387.6 553 291.6 604C195.6 655 97.8 736.4 0 818V-100H1005.5Z" fill="#00A8E8" fill-opacity="0.1"/>
<path d="M352.7 -185.1C349.5 -122.7 346.3 -60.5 317.7 -9.5C289.3 41.5 235.5 81.3 185.1 106.3C134.5 131.1 87.5 141.5 39.5 166.9C-8.5 192.3 -57.3 233.1 -106.3 273.9V-185.1H352.7Z" fill="#00A8E8" fill-opacity="0.15"/>
</g>
<defs>
<clipPath id="clip0_282_275">
<rect width="1920" height="1080" fill="white" transform="translate(0 -100)"/>
</clipPath>
</defs>
</svg>
